<svg width="60" height="60" viewBox="0 0 60 60" fill="none" xmlns="http://www.w3.org/2000/svg">
<path d="M51.1393 48.5625H35.7577C35.2831 48.5625 34.8984 48.9472 34.8984 49.4218C34.8984 49.8963 35.2832 50.2811 35.7577 50.2811H51.1393C51.6139 50.2811 51.9986 49.8963 51.9986 49.4218C51.9986 48.9472 51.6138 48.5625 51.1393 48.5625Z" fill="#26BE69"/>
<path d="M24.1569 48.5626H8.86124C8.38661 48.5626 8.00195 48.9474 8.00195 49.4219C8.00195 49.8965 8.38669 50.2812 8.86124 50.2812H24.1569C24.6315 50.2812 25.0162 49.8965 25.0162 49.4219C25.0162 48.9474 24.6314 48.5626 24.1569 48.5626Z" fill="#26BE69"/>
<path d="M30.34 25.5789H23.6806C23.2059 25.5789 22.8213 25.9636 22.8213 26.4381C22.8213 26.9128 23.206 27.2974 23.6806 27.2974H30.34C30.8147 27.2974 31.1993 26.9127 31.1993 26.4381C31.1993 25.9636 30.8146 25.5789 30.34 25.5789Z" fill="#26BE69"/>
<path d="M37.0283 25.8309C36.8685 25.6711 36.6467 25.5791 36.4208 25.5791C36.1939 25.5791 35.9722 25.6711 35.8133 25.8309C35.6526 25.9907 35.5615 26.2125 35.5615 26.4384C35.5615 26.6644 35.6526 26.8861 35.8133 27.0459C35.9732 27.2057 36.194 27.2977 36.4208 27.2977C36.6468 27.2977 36.8685 27.2057 37.0283 27.0459C37.1881 26.886 37.2801 26.6643 37.2801 26.4384C37.2801 26.2125 37.1881 25.9907 37.0283 25.8309Z" fill="#26BE69"/>
<path d="M34.0262 25.8309C33.8655 25.6711 33.6447 25.5791 33.4179 25.5791C33.1919 25.5791 32.9701 25.6711 32.8104 25.8309C32.6505 25.9907 32.5586 26.2125 32.5586 26.4384C32.5586 26.6653 32.6505 26.8861 32.8104 27.0459C32.9711 27.2057 33.192 27.2977 33.4179 27.2977C33.6438 27.2977 33.8656 27.2057 34.0262 27.0459C34.1861 26.886 34.2772 26.6643 34.2772 26.4384C34.2772 26.2125 34.1861 25.9907 34.0262 25.8309Z" fill="#26BE69"/>
<path d="M30.34 32.4531H23.6806C23.2059 32.4531 22.8213 32.8379 22.8213 33.3124C22.8213 33.787 23.206 34.1717 23.6806 34.1717H30.34C30.8147 34.1717 31.1993 33.787 31.1993 33.3124C31.1993 32.8379 30.8146 32.4531 30.34 32.4531Z" fill="#26BE69"/>
<path d="M37.0283 32.7052C36.8685 32.5453 36.6467 32.4534 36.4208 32.4534C36.1939 32.4534 35.9731 32.5453 35.8133 32.7052C35.6526 32.865 35.5615 33.0867 35.5615 33.3127C35.5615 33.5395 35.6526 33.7604 35.8133 33.9201C35.9732 34.08 36.194 34.1719 36.4208 34.1719C36.6468 34.1719 36.8685 34.08 37.0283 33.9201C37.1881 33.7603 37.2801 33.5386 37.2801 33.3127C37.2801 33.0867 37.1881 32.865 37.0283 32.7052Z" fill="#26BE69"/>
<path d="M34.0262 32.7052C33.8655 32.5453 33.6447 32.4534 33.4179 32.4534C33.1919 32.4534 32.9701 32.5453 32.8104 32.7052C32.6505 32.865 32.5586 33.0867 32.5586 33.3127C32.5586 33.5386 32.6505 33.7604 32.8104 33.9201C32.9702 34.08 33.192 34.1719 33.4179 34.1719C33.6448 34.1719 33.8656 34.08 34.0262 33.9201C34.1861 33.7603 34.2772 33.5386 34.2772 33.3127C34.2772 33.0867 34.1861 32.865 34.0262 32.7052Z" fill="#26BE69"/>
<path d="M30.34 39.328H23.6806C23.2059 39.328 22.8213 39.7127 22.8213 40.1873C22.8213 40.6618 23.206 41.0466 23.6806 41.0466H30.34C30.8147 41.0466 31.1993 40.6618 31.1993 40.1873C31.1993 39.7127 30.8146 39.328 30.34 39.328Z" fill="#26BE69"/>
<path d="M37.0283 39.5799C36.8676 39.4201 36.6467 39.3281 36.4208 39.3281C36.1939 39.3281 35.9731 39.4201 35.8125 39.5799C35.6526 39.7398 35.5615 39.9615 35.5615 40.1874C35.5615 40.4133 35.6526 40.6351 35.8125 40.7949C35.9732 40.9547 36.194 41.0467 36.4208 41.0467C36.6468 41.0467 36.8685 40.9547 37.0283 40.7949C37.1881 40.6351 37.2801 40.4133 37.2801 40.1874C37.2801 39.9615 37.1881 39.7398 37.0283 39.5799Z" fill="#26BE69"/>
<path d="M34.0254 39.5799C33.8655 39.4201 33.6447 39.3281 33.4179 39.3281C33.1919 39.3281 32.9701 39.4201 32.8104 39.5799C32.6506 39.7398 32.5586 39.9615 32.5586 40.1874C32.5586 40.4133 32.6505 40.6351 32.8104 40.7949C32.9702 40.9547 33.192 41.0467 33.4179 41.0467C33.6448 41.0467 33.8656 40.9547 34.0254 40.7949C34.1861 40.6351 34.2772 40.4133 34.2772 40.1874C34.2772 39.9615 34.1861 39.7398 34.0254 39.5799Z" fill="#26BE69"/>
<path d="M41.1818 33.4355C41.1818 32.0315 40.5049 30.7828 39.4602 29.9983C40.5048 29.2138 41.1818 27.9651 41.1818 26.561C41.1818 24.1919 39.2544 22.2645 36.8853 22.2645H23.1364C20.7672 22.2645 18.8398 24.1919 18.8398 26.561C18.8398 27.9651 19.5168 29.2138 20.5614 29.9983C19.5169 30.7828 18.8398 32.0315 18.8398 33.4355C18.8398 34.8396 19.5168 36.0882 20.5614 36.8728C19.5169 37.6573 18.8398 38.9059 18.8398 40.31C18.8398 42.6791 20.7672 44.6065 23.1364 44.6065H29.1406V46.9919C28.1405 47.3466 27.4221 48.3017 27.4221 49.422C27.422 50.8435 28.5784 52 29.9999 52C31.4214 52 32.5779 50.8435 32.5779 49.422C32.5779 48.3018 31.8594 47.3466 30.8593 46.9919V44.6065H36.8854C39.2545 44.6065 41.1819 42.6791 41.1819 40.31C41.1819 38.9059 40.505 37.6573 39.4603 36.8728C40.5048 36.0882 41.1818 34.8396 41.1818 33.4355ZM20.5583 26.5611C20.5583 25.1396 21.7148 23.9832 23.1363 23.9832H36.8852C38.3067 23.9832 39.4632 25.1396 39.4632 26.5611C39.4632 27.9826 38.3067 29.1391 36.8852 29.1391H23.1363C21.7148 29.139 20.5583 27.9825 20.5583 26.5611ZM29.9999 50.2814C29.5261 50.2814 29.1406 49.8959 29.1406 49.4221C29.1406 48.9482 29.5261 48.5628 29.9999 48.5628C30.4737 48.5628 30.8592 48.9483 30.8592 49.4221C30.8592 49.8959 30.4738 50.2814 29.9999 50.2814ZM39.4632 40.31C39.4632 41.7315 38.3067 42.8879 36.8852 42.8879H23.1363C21.7148 42.8879 20.5583 41.7315 20.5583 40.31C20.5583 38.8885 21.7148 37.732 23.1363 37.732H36.8852C38.3067 37.7321 39.4632 38.8886 39.4632 40.31ZM36.8852 36.0135H23.1363C21.7148 36.0135 20.5583 34.857 20.5583 33.4355C20.5583 32.014 21.7148 30.8576 23.1363 30.8576H36.8852C38.3067 30.8576 39.4632 32.014 39.4632 33.4355C39.4632 34.857 38.3067 36.0135 36.8852 36.0135Z" fill="#26BE69"/>
<path d="M50.1537 21.3061C49.0503 19.7045 47.5433 18.4528 45.7787 17.6673C43.6159 11.869 38.0663 8 31.8478 8C28.2294 8 24.7425 9.31544 22.0297 11.7039C19.5492 13.8877 17.8725 16.8222 17.2519 20.0377C17.1185 20.0317 16.9854 20.0286 16.8528 20.0286C11.9724 20.0286 8.00195 23.9991 8.00195 28.8795C8.00195 31.0033 8.76559 33.0571 10.1522 34.6625C11.5242 36.2509 13.4162 37.3027 15.4798 37.6244C15.5246 37.6314 15.5692 37.6348 15.6132 37.6348C16.0294 37.6348 16.395 37.3318 16.4612 36.9078C16.5343 36.4388 16.2133 35.9995 15.7445 35.9264C12.254 35.3823 9.72053 32.4187 9.72053 28.8796C9.72053 24.9468 12.92 21.7473 16.8528 21.7473C17.1839 21.7473 17.5197 21.7708 17.8509 21.8172C18.0774 21.8488 18.3069 21.789 18.4889 21.651C18.6711 21.513 18.7907 21.3081 18.8214 21.0817C19.7 14.6037 25.3002 9.71866 31.8477 9.71866C37.4624 9.71866 42.4601 13.2842 44.2841 18.591C44.3652 18.8272 44.5451 19.0162 44.7768 19.1092C48.1197 20.4506 50.2798 23.6448 50.2798 27.2468C50.2798 31.3927 47.3369 35.0039 43.2822 35.8336C42.8172 35.9288 42.5176 36.3829 42.6127 36.8478C42.7078 37.3128 43.1617 37.6124 43.6268 37.5173C48.4777 36.5247 51.9985 32.2054 51.9985 27.2468C51.9985 25.1121 51.3606 23.0578 50.1537 21.3061Z" fill="#26BE69"/>
</svg>
