<svg width="60" height="60" viewBox="0 0 60 60" fill="none" xmlns="http://www.w3.org/2000/svg">
<path d="M24.1148 11.8415L29.748 13.9989L29.7492 13.9966C29.8301 14.0271 29.9145 14.0446 30 14.0446C30.0844 14.0446 30.1699 14.0294 30.252 13.9978L35.8852 11.8403C36.157 11.736 36.3363 11.4747 36.3363 11.1841V4.61807C36.3363 4.38603 36.2227 4.17041 36.0316 4.03916C35.9848 4.00752 35.9356 3.98174 35.8852 3.96182L35.8828 3.96064C35.8816 3.96064 35.8805 3.95947 35.8793 3.95947L30.252 1.80439C30.0902 1.74229 29.9109 1.74229 29.7492 1.80439L24.1219 3.95947C24.1207 3.95947 24.1207 3.95947 24.1195 3.96064L24.116 3.96182C24.0645 3.98174 24.0152 4.00752 23.9695 4.03916C23.7785 4.17041 23.6648 4.38721 23.6648 4.61807V11.1841C23.6637 11.4759 23.843 11.7372 24.1148 11.8415ZM25.0699 5.64111L29.2969 7.25947V12.3196L25.0699 10.7001V5.64111ZM34.9301 10.7013L30.7031 12.3196V7.25947L34.9301 5.63994V10.7013ZM30 3.21299L33.668 4.61807L30 6.02314L26.332 4.61807L30 3.21299ZM38.2664 29.9997C38.2664 25.4423 34.5586 21.7333 30 21.7333C25.4414 21.7333 21.7336 25.4411 21.7336 29.9997C21.7336 34.5583 25.4414 38.2661 30 38.2661C34.5586 38.2661 38.2664 34.5571 38.2664 29.9997ZM30 36.8599C26.2172 36.8599 23.1398 33.7825 23.1398 29.9997C23.1398 26.2169 26.2172 23.1396 30 23.1396C33.7828 23.1396 36.8602 26.2169 36.8602 29.9997C36.8602 33.7825 33.7828 36.8599 30 36.8599ZM34.9277 27.6759L29.2863 33.3173C29.1492 33.4544 28.9688 33.5235 28.7895 33.5235C28.6102 33.5235 28.4297 33.4544 28.2926 33.3173L25.0711 30.0958C24.7969 29.8216 24.7969 29.3763 25.0711 29.1021C25.3453 28.8278 25.7906 28.8278 26.0648 29.1021L28.7883 31.8255L33.9316 26.6821C34.2059 26.4079 34.6512 26.4079 34.9254 26.6821C35.2031 26.9563 35.2031 27.4017 34.9277 27.6759ZM57.9375 26.1372C57.8906 26.1056 57.8414 26.0798 57.791 26.0599L57.7875 26.0587C57.7863 26.0587 57.7852 26.0575 57.7852 26.0575L52.1578 23.9024C51.9961 23.8403 51.8168 23.8403 51.6551 23.9024L46.0277 26.0575C46.0266 26.0575 46.0266 26.0575 46.0254 26.0587L46.0219 26.0599C45.9703 26.0798 45.9211 26.1056 45.8754 26.1372C45.6844 26.2685 45.5707 26.4853 45.5707 26.7161V33.2821C45.5707 33.5739 45.75 33.8341 46.0219 33.9384L51.6551 36.0958L51.6562 36.0935C51.7371 36.1239 51.8215 36.1415 51.907 36.1415C51.9914 36.1415 52.077 36.1263 52.159 36.0946L57.7922 33.9372C58.0641 33.8329 58.2434 33.5716 58.2434 33.281V26.7149C58.2422 26.4853 58.1285 26.2685 57.9375 26.1372ZM51.9059 25.3122L55.5738 26.7173L51.9059 28.1224L48.2379 26.7173L51.9059 25.3122ZM46.9758 27.7392L51.2027 29.3575V34.4177L46.9758 32.7981V27.7392ZM56.8359 32.7993L52.609 34.4188V29.3587L56.8359 27.7392V32.7993ZM14.4305 33.2833V26.7173C14.4305 26.4853 14.3168 26.2696 14.1258 26.1384C14.0789 26.1067 14.0297 26.081 13.9793 26.061L13.9758 26.0599C13.9746 26.0599 13.9734 26.0587 13.9734 26.0587L8.34609 23.9036C8.18438 23.8415 8.00508 23.8415 7.84336 23.9036L2.21484 26.0575C2.21367 26.0575 2.21367 26.0575 2.2125 26.0587L2.20898 26.0599C2.15742 26.0798 2.1082 26.1056 2.0625 26.1372C1.87148 26.2685 1.75781 26.4853 1.75781 26.7161V33.2821C1.75781 33.5739 1.93711 33.8341 2.20898 33.9384L7.84219 36.0958L7.84336 36.0935C7.92422 36.1239 8.00859 36.1415 8.09414 36.1415C8.17852 36.1415 8.26406 36.1263 8.34609 36.0946L13.9793 33.9372C14.2512 33.8353 14.4305 33.5739 14.4305 33.2833ZM8.09414 25.3122L11.7621 26.7173L8.09414 28.1224L4.42617 26.7173L8.09414 25.3122ZM3.16406 27.7392L7.39102 29.3575V34.4177L3.16406 32.7993V27.7392ZM13.0242 32.7993L8.79727 34.4188V29.3587L13.0242 27.7392V32.7993ZM36.0316 48.2353C35.9848 48.2036 35.9356 48.1778 35.8852 48.1579L35.8805 48.1567H35.8793L30.2508 46.0005C30.0891 45.9384 29.9098 45.9384 29.748 46.0005L24.1207 48.1567H24.1195L24.116 48.1579C24.0645 48.1778 24.0152 48.2036 23.9695 48.2353C23.7785 48.3665 23.6648 48.5833 23.6648 48.8142V55.3802C23.6648 55.672 23.8441 55.9321 24.116 56.0364L29.7492 58.1938L29.7504 58.1915C29.8313 58.222 29.9156 58.2396 30.0012 58.2396C30.0856 58.2396 30.1711 58.2243 30.2531 58.1927L35.8863 56.0353C36.1582 55.931 36.3375 55.6696 36.3375 55.379V48.813C36.3363 48.5833 36.2227 48.3665 36.0316 48.2353ZM30 47.4103L33.668 48.8153L30 50.2192L26.332 48.8142L30 47.4103ZM25.0699 49.8372L29.2969 51.4567V56.5169L25.0699 54.8974V49.8372ZM34.9301 54.8974L30.7031 56.5169V51.4567L34.9301 49.8372V54.8974ZM9.50859 22.8196C11.5828 16.8981 16.118 12.1649 21.948 9.83408C22.3078 9.68994 22.718 9.86572 22.8621 10.2255C23.0063 10.5853 22.8305 10.9954 22.4707 11.1396C17.0168 13.3192 12.777 17.7454 10.8363 23.2837C10.7344 23.5731 10.4637 23.7548 10.173 23.7548C10.0957 23.7548 10.0172 23.7419 9.94102 23.7149C9.57305 23.5872 9.37969 23.1864 9.50859 22.8196ZM37.1379 10.2267C37.282 9.86572 37.691 9.68994 38.052 9.83525C43.875 12.1626 48.4066 16.8876 50.4844 22.7985C50.6133 23.1653 50.4211 23.5661 50.0543 23.695C49.977 23.722 49.8984 23.7349 49.8211 23.7349C49.5305 23.7349 49.2598 23.5544 49.1578 23.2649C47.2148 17.736 42.9762 13.3169 37.5305 11.1407C37.1695 10.9966 36.9938 10.5876 37.1379 10.2267ZM50.4656 37.2513C48.382 43.1317 43.8621 47.8368 38.0672 50.1571C37.9816 50.1911 37.8926 50.2075 37.8059 50.2075C37.527 50.2075 37.2633 50.0399 37.1531 49.7657C37.009 49.4048 37.1836 48.9958 37.5445 48.8517C42.9645 46.6802 47.1914 42.281 49.1402 36.7813C49.2703 36.4157 49.6723 36.2235 50.0379 36.3536C50.4047 36.4837 50.5957 36.8856 50.4656 37.2513ZM22.8469 49.7669C22.7367 50.0411 22.473 50.2087 22.1941 50.2087C22.1074 50.2087 22.0184 50.1923 21.9328 50.1583C16.1121 47.8274 11.584 43.0978 9.50977 37.1845C9.38086 36.8177 9.57422 36.4169 9.94102 36.288C10.3078 36.1591 10.7086 36.3524 10.8375 36.7192C12.777 42.2493 17.0109 46.672 22.4555 48.8528C22.8164 48.997 22.991 49.406 22.8469 49.7669ZM30 20.5638C29.6121 20.5638 29.2969 20.2485 29.2969 19.8606V15.9196C29.2969 15.5317 29.6121 15.2165 30 15.2165C30.3879 15.2165 30.7031 15.5317 30.7031 15.9196V19.8606C30.7031 20.2485 30.3879 20.5638 30 20.5638ZM44.0813 29.2966C44.4691 29.2966 44.7844 29.6118 44.7844 29.9997C44.7844 30.3876 44.4691 30.7028 44.0813 30.7028H40.1402C39.7523 30.7028 39.4371 30.3876 39.4371 29.9997C39.4371 29.6118 39.7523 29.2966 40.1402 29.2966H44.0813ZM30 39.4356C30.3879 39.4356 30.7031 39.7509 30.7031 40.1388V44.0798C30.7031 44.4677 30.3879 44.7829 30 44.7829C29.6121 44.7829 29.2969 44.4677 29.2969 44.0798V40.1388C29.2969 39.7509 29.6121 39.4356 30 39.4356ZM19.8609 29.2966C20.2488 29.2966 20.5641 29.6118 20.5641 29.9997C20.5641 30.3876 20.2488 30.7028 19.8609 30.7028H15.9199C15.532 30.7028 15.2168 30.3876 15.2168 29.9997C15.2168 29.6118 15.532 29.2966 15.9199 29.2966H19.8609Z" fill="#26BE69"/>
</svg>
