<svg width="60" height="60" viewBox="0 0 60 60" fill="none" xmlns="http://www.w3.org/2000/svg">
<path d="M56 16.186C56 13.7433 53.969 11.7563 51.4724 11.7563C50.1905 11.7563 49.0321 12.2812 48.2076 13.1216L30.5388 3.14121C30.2053 2.95293 29.7947 2.95293 29.4612 3.14121L11.792 13.1216C10.9675 12.2812 9.80945 11.7563 8.52763 11.7563C6.03095 11.7563 4 13.7433 4 16.186C4 18.2649 5.47173 20.0129 7.44963 20.4876V40.4414C7.44963 40.8179 7.65512 41.1661 7.98863 41.3548L25.652 51.3323C25.5349 51.7253 25.4709 52.1406 25.4709 52.5703C25.4709 55.0126 27.5018 57 29.9985 57C32.4948 57 34.5257 55.0126 34.5257 52.5703C34.5257 52.141 34.4622 51.7266 34.3451 51.3335L52.0114 41.3548C52.3449 41.1665 52.5504 40.8179 52.5504 40.4414V20.4876C54.5283 20.0129 56 18.2649 56 16.186ZM6.15602 16.186C6.15602 14.9064 7.21971 13.8657 8.52763 13.8657C9.83514 13.8657 10.8988 14.9064 10.8988 16.186C10.8988 17.4652 9.83514 18.5063 8.52763 18.5063C7.21971 18.5063 6.15602 17.4652 6.15602 16.186ZM29.9985 54.8906C28.6906 54.8906 27.6269 53.8499 27.6269 52.5703C27.6269 51.2911 28.6906 50.25 29.9985 50.25C31.306 50.25 32.3701 51.2911 32.3701 52.5703C32.3701 53.8499 31.306 54.8906 29.9985 54.8906ZM33.2654 49.508C32.4405 48.6663 31.2816 48.1406 29.9985 48.1406C28.7163 48.1406 27.5574 48.6659 26.7329 49.5068L9.60564 39.8325V20.4876C11.5831 20.0129 13.0548 18.2649 13.0548 16.186C13.0548 15.7559 12.9908 15.3402 12.8734 14.9463L29.9998 5.27242L47.1266 14.9463C47.0092 15.3402 46.9452 15.7555 46.9452 16.186C46.9452 18.2649 48.4169 20.0129 50.3944 20.4876V39.8325L33.2654 49.508ZM51.4724 18.5063C50.1649 18.5063 49.1007 17.4652 49.1007 16.186C49.1007 14.9064 50.1649 13.8657 51.4724 13.8657C52.7803 13.8657 53.844 14.9064 53.844 16.186C53.844 17.4652 52.7803 18.5063 51.4724 18.5063Z" fill="#26BE69"/>
<path d="M46.0758 18.062L30.607 9.13151C30.2445 8.92231 29.7981 8.92231 29.4356 9.13151L13.9668 18.062C13.6042 18.2717 13.3809 18.6585 13.3809 19.0769V36.9384C13.3809 37.3568 13.6042 37.7441 13.9668 37.9533L29.4356 46.8843C29.6169 46.9887 29.8187 47.0413 30.0211 47.0413C30.2239 47.0413 30.4257 46.9887 30.607 46.8843L46.0758 37.9533C46.4384 37.7441 46.6618 37.3568 46.6618 36.9384V19.0769C46.6618 18.6585 46.4384 18.2717 46.0758 18.062ZM30.0211 11.4995L43.1461 19.0769L30.0211 26.6548L16.8965 19.0769L30.0211 11.4995ZM31.193 43.8397V38.5548C31.193 37.9075 30.6684 37.3829 30.0211 37.3829C29.3743 37.3829 28.8497 37.9075 28.8497 38.5548V43.8397L15.7246 36.2619V21.1066L29.4356 29.0228C29.6169 29.1271 29.8187 29.1798 30.0211 29.1798C30.2239 29.1798 30.4257 29.1271 30.607 29.0228L44.318 21.1066V36.2619L31.193 43.8397Z" fill="#26BE69"/>
<path d="M30.0209 32.1094C29.7115 32.1094 29.4102 32.2343 29.191 32.4527C28.9731 32.6706 28.8477 32.9727 28.8477 33.2813C28.8477 33.5893 28.9731 33.8915 29.191 34.1094C29.4102 34.3277 29.7115 34.4531 30.0209 34.4531C30.329 34.4531 30.6316 34.3277 30.8495 34.1094C31.0674 33.8915 31.1928 33.5893 31.1928 33.2813C31.1928 32.9727 31.0674 32.6706 30.8495 32.4527C30.6316 32.2343 30.329 32.1094 30.0209 32.1094Z" fill="#26BE69"/>
</svg>
