<svg width="60" height="60" viewBox="0 0 60 60" fill="none" xmlns="http://www.w3.org/2000/svg">
<path d="M45.371 49.0601H14.6286C13.6505 49.059 12.7129 48.6699 12.0213 47.9783C11.3297 47.2867 10.9406 46.3491 10.9395 45.371V14.6286C10.9406 13.6505 11.3297 12.7129 12.0213 12.0213C12.7129 11.3297 13.6505 10.9406 14.6286 10.9395H45.371C46.3491 10.9406 47.2867 11.3297 47.9783 12.0213C48.6699 12.7129 49.059 13.6505 49.0601 14.6286V45.371C49.059 46.3491 48.6699 47.2867 47.9783 47.9783C47.2867 48.6699 46.3491 49.059 45.371 49.0601ZM14.6286 12.7249C14.1238 12.7255 13.64 12.9262 13.2831 13.2831C12.9262 13.64 12.7255 14.1238 12.7249 14.6286V45.371C12.7255 45.8757 12.9262 46.3596 13.2831 46.7165C13.64 47.0734 14.1238 47.2741 14.6286 47.2747H45.371C45.8757 47.2741 46.3596 47.0734 46.7165 46.7165C47.0734 46.3596 47.2741 45.8757 47.2747 45.371V14.6286C47.2741 14.1238 47.0734 13.64 46.7165 13.2831C46.3596 12.9262 45.8757 12.7255 45.371 12.7249H14.6286Z" fill="#26BE69"/>
<path d="M20.4263 43.3731C19.2568 43.3731 18.3061 43.0383 17.6366 42.3688C16.2116 40.9438 16.2975 38.2947 17.8787 34.908C19.3293 31.7936 21.8959 28.3143 25.1018 25.1083C28.3077 21.9024 31.7848 19.3326 34.9014 17.8797C38.2881 16.2985 40.9384 16.2126 42.3622 17.6375C43.7872 19.0614 43.7013 21.7116 42.1201 25.0983C40.6694 28.2127 38.1029 31.692 34.897 34.898C31.6911 38.1039 28.214 40.6682 25.0973 42.121C23.3119 42.9546 21.7307 43.3731 20.4263 43.3731ZM39.5703 18.4053C38.5571 18.4053 37.2046 18.7746 35.6558 19.4966C32.7266 20.8647 29.4269 23.304 26.365 26.3659C23.303 29.4279 20.8637 32.7265 19.4967 35.6568C18.2927 38.2367 18.0695 40.2709 18.8986 41.1011C19.7277 41.9314 21.7631 41.7071 24.343 40.5041C27.2722 39.1361 30.5718 36.6968 33.6338 33.6348C36.6958 30.5728 39.1351 27.2743 40.5032 24.344C41.7061 21.7641 41.9293 19.7298 41.1002 18.8996C40.7687 18.5682 40.2443 18.4053 39.5703 18.4053Z" fill="#26BE69"/>
<path d="M39.5735 43.3726C38.269 43.3726 36.6878 42.9542 34.9024 42.1206C31.788 40.67 28.3087 38.1034 25.1028 34.8975C21.8968 31.6916 19.3326 28.2145 17.8797 25.0979C16.2985 21.7112 16.2126 19.061 17.6375 17.6371C19.0625 16.2132 21.7116 16.298 25.0983 17.8792C28.2127 19.3299 31.692 21.8964 34.898 25.1023C38.1039 28.3082 40.6682 31.7853 42.121 34.902C43.7023 38.2887 43.7882 40.9378 42.3632 42.3628C41.6903 43.0367 40.7429 43.3726 39.5735 43.3726ZM20.4295 18.4048C19.7599 18.4048 19.231 18.5677 18.8996 18.8992C18.0705 19.7294 18.2937 21.7636 19.4977 24.3435C20.8647 27.2727 23.304 30.5724 26.3659 33.6343C29.4279 36.6963 32.7265 39.1356 35.6568 40.5037C38.2367 41.7066 40.2709 41.9298 41.1011 41.1007C41.9314 40.2716 41.7071 38.2362 40.5041 35.6563C39.1361 32.7271 36.6968 29.4275 33.6348 26.3655C30.5728 23.3035 27.2743 20.8642 24.344 19.4961C22.7951 18.7742 21.4427 18.4048 20.4295 18.4048Z" fill="#26BE69"/>
<path d="M30.0006 33.0549C29.3963 33.0549 28.8056 32.8757 28.3032 32.54C27.8007 32.2043 27.4091 31.7271 27.1779 31.1688C26.9466 30.6105 26.8861 29.9962 27.004 29.4036C27.1219 28.8109 27.4129 28.2665 27.8402 27.8392C28.2675 27.4119 28.8119 27.1209 29.4045 27.003C29.9972 26.8852 30.6115 26.9457 31.1698 27.1769C31.7281 27.4082 32.2052 27.7998 32.541 28.3022C32.8767 28.8046 33.0559 29.3953 33.0559 29.9996C33.055 30.8097 32.7328 31.5863 32.16 32.159C31.5872 32.7318 30.8106 33.054 30.0006 33.0549ZM30.0006 28.7297C29.7494 28.7297 29.5039 28.8042 29.2951 28.9438C29.0863 29.0833 28.9235 29.2816 28.8274 29.5137C28.7313 29.7457 28.7061 30.001 28.7551 30.2474C28.8041 30.4937 28.9251 30.72 29.1027 30.8976C29.2803 31.0751 29.5065 31.1961 29.7529 31.2451C29.9992 31.2941 30.2545 31.2689 30.4866 31.1728C30.7186 31.0767 30.9169 30.9139 31.0565 30.7051C31.196 30.4963 31.2705 30.2508 31.2705 29.9996C31.2702 29.6629 31.1363 29.3401 30.8982 29.102C30.6601 28.8639 30.3373 28.73 30.0006 28.7297Z" fill="#26BE69"/>
<path d="M19.0988 12.7251C18.862 12.7251 18.6349 12.631 18.4675 12.4636C18.3001 12.2962 18.2061 12.0691 18.2061 11.8324V4.8927C18.2061 4.65594 18.3001 4.42888 18.4675 4.26147C18.6349 4.09405 18.862 4 19.0988 4C19.3355 4 19.5626 4.09405 19.73 4.26147C19.8974 4.42888 19.9915 4.65594 19.9915 4.8927V11.8324C19.9915 12.0691 19.8974 12.2962 19.73 12.4636C19.5626 12.631 19.3355 12.7251 19.0988 12.7251Z" fill="#26BE69"/>
<path d="M26.3673 12.7251C26.1306 12.7251 25.9035 12.631 25.7361 12.4636C25.5687 12.2962 25.4746 12.0691 25.4746 11.8324V4.8927C25.4746 4.65594 25.5687 4.42888 25.7361 4.26147C25.9035 4.09405 26.1306 4 26.3673 4C26.6041 4 26.8311 4.09405 26.9985 4.26147C27.166 4.42888 27.26 4.65594 27.26 4.8927V11.8324C27.26 12.0691 27.166 12.2962 26.9985 12.4636C26.8311 12.631 26.6041 12.7251 26.3673 12.7251Z" fill="#26BE69"/>
<path d="M33.6329 12.7251C33.3962 12.7251 33.1691 12.631 33.0017 12.4636C32.8343 12.2962 32.7402 12.0691 32.7402 11.8324V4.8927C32.7402 4.65594 32.8343 4.42888 33.0017 4.26147C33.1691 4.09405 33.3962 4 33.6329 4C33.8697 4 34.0968 4.09405 34.2642 4.26147C34.4316 4.42888 34.5256 4.65594 34.5256 4.8927V11.8324C34.5256 12.0691 34.4316 12.2962 34.2642 12.4636C34.0968 12.631 33.8697 12.7251 33.6329 12.7251Z" fill="#26BE69"/>
<path d="M40.9015 12.7251C40.6647 12.7251 40.4377 12.631 40.2703 12.4636C40.1028 12.2962 40.0088 12.0691 40.0088 11.8324V4.8927C40.0088 4.65594 40.1028 4.42888 40.2703 4.26147C40.4377 4.09405 40.6647 4 40.9015 4C41.1383 4 41.3653 4.09405 41.5327 4.26147C41.7001 4.42888 41.7942 4.65594 41.7942 4.8927V11.8324C41.7942 12.0691 41.7001 12.2962 41.5327 12.4636C41.3653 12.631 41.1383 12.7251 40.9015 12.7251Z" fill="#26BE69"/>
<path d="M19.0988 56.0005C18.862 56.0005 18.6349 55.9064 18.4675 55.739C18.3001 55.5716 18.2061 55.3445 18.2061 55.1078V48.1681C18.2061 47.9313 18.3001 47.7043 18.4675 47.5369C18.6349 47.3694 18.862 47.2754 19.0988 47.2754C19.3355 47.2754 19.5626 47.3694 19.73 47.5369C19.8974 47.7043 19.9915 47.9313 19.9915 48.1681V55.1078C19.9915 55.3445 19.8974 55.5716 19.73 55.739C19.5626 55.9064 19.3355 56.0005 19.0988 56.0005Z" fill="#26BE69"/>
<path d="M26.3673 56.0005C26.1306 56.0005 25.9035 55.9064 25.7361 55.739C25.5687 55.5716 25.4746 55.3445 25.4746 55.1078V48.1681C25.4746 47.9313 25.5687 47.7043 25.7361 47.5369C25.9035 47.3694 26.1306 47.2754 26.3673 47.2754C26.6041 47.2754 26.8311 47.3694 26.9985 47.5369C27.166 47.7043 27.26 47.9313 27.26 48.1681V55.1078C27.26 55.3445 27.166 55.5716 26.9985 55.739C26.8311 55.9064 26.6041 56.0005 26.3673 56.0005Z" fill="#26BE69"/>
<path d="M33.6329 56.0005C33.3962 56.0005 33.1691 55.9064 33.0017 55.739C32.8343 55.5716 32.7402 55.3445 32.7402 55.1078V48.1681C32.7402 47.9313 32.8343 47.7043 33.0017 47.5369C33.1691 47.3694 33.3962 47.2754 33.6329 47.2754C33.8697 47.2754 34.0968 47.3694 34.2642 47.5369C34.4316 47.7043 34.5256 47.9313 34.5256 48.1681V55.1078C34.5256 55.3445 34.4316 55.5716 34.2642 55.739C34.0968 55.9064 33.8697 56.0005 33.6329 56.0005Z" fill="#26BE69"/>
<path d="M40.9005 56.0005C40.6638 56.0005 40.4367 55.9064 40.2693 55.739C40.1019 55.5716 40.0078 55.3445 40.0078 55.1078V48.1681C40.0078 47.9313 40.1019 47.7043 40.2693 47.5369C40.4367 47.3694 40.6638 47.2754 40.9005 47.2754C41.1373 47.2754 41.3643 47.3694 41.5318 47.5369C41.6992 47.7043 41.7932 47.9313 41.7932 48.1681V55.1078C41.7932 55.3445 41.6992 55.5716 41.5318 55.739C41.3643 55.9064 41.1373 56.0005 40.9005 56.0005Z" fill="#26BE69"/>
<path d="M55.1078 19.9915H48.1681C47.9313 19.9915 47.7043 19.8974 47.5369 19.73C47.3694 19.5626 47.2754 19.3355 47.2754 19.0988C47.2754 18.862 47.3694 18.6349 47.5369 18.4675C47.7043 18.3001 47.9313 18.2061 48.1681 18.2061H55.1078C55.3445 18.2061 55.5716 18.3001 55.739 18.4675C55.9064 18.6349 56.0005 18.862 56.0005 19.0988C56.0005 19.3355 55.9064 19.5626 55.739 19.73C55.5716 19.8974 55.3445 19.9915 55.1078 19.9915Z" fill="#26BE69"/>
<path d="M55.1078 27.259H48.1681C47.9313 27.259 47.7043 27.165 47.5369 26.9976C47.3694 26.8302 47.2754 26.6031 47.2754 26.3663C47.2754 26.1296 47.3694 25.9025 47.5369 25.7351C47.7043 25.5677 47.9313 25.4736 48.1681 25.4736H55.1078C55.3445 25.4736 55.5716 25.5677 55.739 25.7351C55.9064 25.9025 56.0005 26.1296 56.0005 26.3663C56.0005 26.6031 55.9064 26.8302 55.739 26.9976C55.5716 27.165 55.3445 27.259 55.1078 27.259Z" fill="#26BE69"/>
<path d="M55.1078 34.5256H48.1681C47.9313 34.5256 47.7043 34.4316 47.5369 34.2642C47.3694 34.0968 47.2754 33.8697 47.2754 33.6329C47.2754 33.3962 47.3694 33.1691 47.5369 33.0017C47.7043 32.8343 47.9313 32.7402 48.1681 32.7402H55.1078C55.3445 32.7402 55.5716 32.8343 55.739 33.0017C55.9064 33.1691 56.0005 33.3962 56.0005 33.6329C56.0005 33.8697 55.9064 34.0968 55.739 34.2642C55.5716 34.4316 55.3445 34.5256 55.1078 34.5256Z" fill="#26BE69"/>
<path d="M55.1078 41.7932H48.1681C47.9313 41.7932 47.7043 41.6992 47.5369 41.5318C47.3694 41.3643 47.2754 41.1373 47.2754 40.9005C47.2754 40.6638 47.3694 40.4367 47.5369 40.2693C47.7043 40.1019 47.9313 40.0078 48.1681 40.0078H55.1078C55.3445 40.0078 55.5716 40.1019 55.739 40.2693C55.9064 40.4367 56.0005 40.6638 56.0005 40.9005C56.0005 41.1373 55.9064 41.3643 55.739 41.5318C55.5716 41.6992 55.3445 41.7932 55.1078 41.7932Z" fill="#26BE69"/>
<path d="M11.8324 19.9915H4.8927C4.65594 19.9915 4.42888 19.8974 4.26147 19.73C4.09405 19.5626 4 19.3355 4 19.0988C4 18.862 4.09405 18.6349 4.26147 18.4675C4.42888 18.3001 4.65594 18.2061 4.8927 18.2061H11.8324C12.0691 18.2061 12.2962 18.3001 12.4636 18.4675C12.631 18.6349 12.7251 18.862 12.7251 19.0988C12.7251 19.3355 12.631 19.5626 12.4636 19.73C12.2962 19.8974 12.0691 19.9915 11.8324 19.9915Z" fill="#26BE69"/>
<path d="M11.8324 27.259H4.8927C4.65594 27.259 4.42888 27.165 4.26147 26.9976C4.09405 26.8302 4 26.6031 4 26.3663C4 26.1296 4.09405 25.9025 4.26147 25.7351C4.42888 25.5677 4.65594 25.4736 4.8927 25.4736H11.8324C12.0691 25.4736 12.2962 25.5677 12.4636 25.7351C12.631 25.9025 12.7251 26.1296 12.7251 26.3663C12.7251 26.6031 12.631 26.8302 12.4636 26.9976C12.2962 27.165 12.0691 27.259 11.8324 27.259Z" fill="#26BE69"/>
<path d="M11.8324 34.5256H4.8927C4.65594 34.5256 4.42888 34.4316 4.26147 34.2642C4.09405 34.0968 4 33.8697 4 33.6329C4 33.3962 4.09405 33.1691 4.26147 33.0017C4.42888 32.8343 4.65594 32.7402 4.8927 32.7402H11.8324C12.0691 32.7402 12.2962 32.8343 12.4636 33.0017C12.631 33.1691 12.7251 33.3962 12.7251 33.6329C12.7251 33.8697 12.631 34.0968 12.4636 34.2642C12.2962 34.4316 12.0691 34.5256 11.8324 34.5256Z" fill="#26BE69"/>
<path d="M11.8324 41.7932H4.8927C4.65594 41.7932 4.42888 41.6992 4.26147 41.5318C4.09405 41.3643 4 41.1373 4 40.9005C4 40.6638 4.09405 40.4367 4.26147 40.2693C4.42888 40.1019 4.65594 40.0078 4.8927 40.0078H11.8324C12.0691 40.0078 12.2962 40.1019 12.4636 40.2693C12.631 40.4367 12.7251 40.6638 12.7251 40.9005C12.7251 41.1373 12.631 41.3643 12.4636 41.5318C12.2962 41.6992 12.0691 41.7932 11.8324 41.7932Z" fill="#26BE69"/>
</svg>
