<svg width="60" height="60" viewBox="0 0 60 60" fill="none" xmlns="http://www.w3.org/2000/svg">
<path d="M32.0098 25.7344C32.0098 26.074 32.2853 26.3496 32.625 26.3496H33.6504V33.6504H26.3496V26.3496H30C30.3397 26.3496 30.6152 26.074 30.6152 25.7344C30.6152 25.3947 30.3397 25.1191 30 25.1191H26.0625C25.5424 25.1191 25.1191 25.5424 25.1191 26.0625V33.9375C25.1191 34.4576 25.5424 34.8809 26.0625 34.8809H33.9375C34.4576 34.8809 34.8809 34.4576 34.8809 33.9375V26.0625C34.8809 25.5424 34.4576 25.1191 33.9375 25.1191H32.625C32.2853 25.1191 32.0098 25.3947 32.0098 25.7344Z" fill="#26BE69"/>
<path d="M12.4043 11.4609C11.8842 11.4609 11.4609 11.8842 11.4609 12.4043V16.6699C11.4609 17.19 11.8842 17.6133 12.4043 17.6133H16.6699C17.19 17.6133 17.6133 17.19 17.6133 16.6699V12.4043C17.6133 11.8842 17.19 11.4609 16.6699 11.4609H12.4043ZM16.3828 16.3828H12.6914V12.6914H16.3828V16.3828Z" fill="#26BE69"/>
<path d="M16.6699 42.3867H12.4043C11.8842 42.3867 11.4609 42.81 11.4609 43.3301V47.5957C11.4609 48.1158 11.8842 48.5391 12.4043 48.5391H16.6699C17.19 48.5391 17.6133 48.1158 17.6133 47.5957V43.3301C17.6133 42.81 17.19 42.3867 16.6699 42.3867ZM16.3828 47.3086H12.6914V43.6172H16.3828V47.3086Z" fill="#26BE69"/>
<path d="M41.5254 20.0742H49.4004C50.2825 20.0742 51 19.3568 51 18.4746V10.5996C51 9.71745 50.2825 9 49.4004 9H41.5254C40.6432 9 39.9258 9.71745 39.9258 10.5996V13.9219H32.543C32.2033 13.9219 31.9277 14.1974 31.9277 14.5371V22.6582H28.5645V20.2556C29.2806 20.0015 29.7949 19.3177 29.7949 18.5156C29.7949 17.4979 28.9669 16.6699 27.9492 16.6699C26.9315 16.6699 26.1035 17.4979 26.1035 18.5156C26.1035 19.3177 26.6178 20.0015 27.334 20.2556V22.6582H24.5853C23.5227 22.6582 22.6582 23.5227 22.6582 24.5853V28.1543H15.1523V20.0742H18.4746C19.3568 20.0742 20.0742 19.3568 20.0742 18.4746V16.875C20.0742 16.5353 19.7986 16.2598 19.459 16.2598C19.1193 16.2598 18.8438 16.5353 18.8438 16.875V18.4746C18.8438 18.6781 18.6781 18.8438 18.4746 18.8438H10.5996C10.3961 18.8438 10.2305 18.6781 10.2305 18.4746V10.5996C10.2305 10.3961 10.3961 10.2305 10.5996 10.2305H18.4746C18.6781 10.2305 18.8438 10.3961 18.8438 10.5996V14.25C18.8438 14.5897 19.1193 14.8652 19.459 14.8652C19.7986 14.8652 20.0742 14.5897 20.0742 14.25V10.5996C20.0742 9.71745 19.3568 9 18.4746 9H10.5996C9.71745 9 9 9.71745 9 10.5996V18.4746C9 19.3568 9.71745 20.0742 10.5996 20.0742H13.9219V28.7695C13.9219 29.1092 14.1974 29.3848 14.5371 29.3848H22.6582V32.0098H21.8142C21.5601 31.2936 20.8763 30.7793 20.0742 30.7793C19.0565 30.7793 18.2285 31.6073 18.2285 32.625C18.2285 33.6427 19.0565 34.4707 20.0742 34.4707C20.8763 34.4707 21.5601 33.9564 21.8142 33.2402H22.6582V35.4147C22.6582 36.4773 23.5227 37.3418 24.5853 37.3418H27.334V44.6496H20.0742V41.5254C20.0742 40.6432 19.3568 39.9258 18.4746 39.9258H10.5996C9.71745 39.9258 9 40.6432 9 41.5254V49.4004C9 50.2825 9.71745 51 10.5996 51H18.4746C19.3568 51 20.0742 50.2825 20.0742 49.4004V45.8801H27.9492C28.2889 45.8801 28.5645 45.6045 28.5645 45.2649V37.3418H31.9277V40.0725C31.2116 40.3266 30.6973 41.0105 30.6973 41.8125C30.6973 42.8302 31.5253 43.6582 32.543 43.6582C33.5607 43.6582 34.3887 42.8302 34.3887 41.8125C34.3887 41.0105 33.8744 40.3266 33.1582 40.0725V37.3418H35.4147C36.4773 37.3418 37.3418 36.4773 37.3418 35.4147V31.2263H44.8486V39.9258H41.5254C40.6432 39.9258 39.9258 40.6432 39.9258 41.5254V43.125C39.9258 43.4647 40.2014 43.7402 40.541 43.7402C40.8807 43.7402 41.1562 43.4647 41.1562 43.125V41.5254C41.1562 41.3219 41.3219 41.1562 41.5254 41.1562H49.4004C49.6039 41.1562 49.7695 41.3219 49.7695 41.5254V49.4004C49.7695 49.6039 49.6039 49.7695 49.4004 49.7695H41.5254C41.3219 49.7695 41.1562 49.6039 41.1562 49.4004V45.7397C41.1562 45.4001 40.8807 45.1245 40.541 45.1245C40.2014 45.1245 39.9258 45.4001 39.9258 45.7397V49.4004C39.9258 50.2825 40.6432 51 41.5254 51H49.4004C50.2825 51 51 50.2825 51 49.4004V41.5254C51 40.6432 50.2825 39.9258 49.4004 39.9258H46.0791V30.6111C46.0791 30.2714 45.8035 29.9958 45.4639 29.9958H37.3418V27.9082H40.2735C40.5276 28.6244 41.2114 29.1387 42.0134 29.1387C43.0311 29.1387 43.8591 28.3107 43.8591 27.293C43.8591 26.2753 43.0311 25.4473 42.0134 25.4473C41.2114 25.4473 40.5276 25.9616 40.2735 26.6777H37.3418V24.5853C37.3418 23.5227 36.4773 22.6582 35.4147 22.6582H33.1582V15.1523H39.9258V18.4746C39.9258 19.3568 40.6432 20.0742 41.5254 20.0742ZM27.9492 17.9004C28.2886 17.9004 28.5645 18.1763 28.5645 18.5156C28.5645 18.855 28.2886 19.1309 27.9492 19.1309C27.6099 19.1309 27.334 18.855 27.334 18.5156C27.334 18.1763 27.6099 17.9004 27.9492 17.9004ZM20.0742 33.2402C19.7349 33.2402 19.459 32.9643 19.459 32.625C19.459 32.2857 19.7349 32.0098 20.0742 32.0098C20.4136 32.0098 20.6895 32.2857 20.6895 32.625C20.6895 32.9643 20.4136 33.2402 20.0742 33.2402ZM18.8438 49.4004C18.8438 49.6039 18.6781 49.7695 18.4746 49.7695H10.5996C10.3961 49.7695 10.2305 49.6039 10.2305 49.4004V41.5254C10.2305 41.3219 10.3961 41.1562 10.5996 41.1562H18.4746C18.6781 41.1562 18.8438 41.3219 18.8438 41.5254V49.4004ZM32.543 42.4277C32.2036 42.4277 31.9277 42.1518 31.9277 41.8125C31.9277 41.4732 32.2036 41.1973 32.543 41.1973C32.8823 41.1973 33.1582 41.4732 33.1582 41.8125C33.1582 42.1518 32.8823 42.4277 32.543 42.4277ZM42.0134 26.6777C42.3528 26.6777 42.6286 26.9536 42.6286 27.293C42.6286 27.6323 42.3528 27.9082 42.0134 27.9082C41.6741 27.9082 41.3982 27.6323 41.3982 27.293C41.3982 26.9536 41.6741 26.6777 42.0134 26.6777ZM36.1113 24.5853V35.4147C36.1113 35.7989 35.7989 36.1113 35.4147 36.1113H24.5853C24.2011 36.1113 23.8887 35.7989 23.8887 35.4147V24.5853C23.8887 24.2011 24.2011 23.8887 24.5853 23.8887H35.4147C35.7989 23.8887 36.1113 24.2011 36.1113 24.5853ZM41.5254 10.2305H49.4004C49.6039 10.2305 49.7695 10.3961 49.7695 10.5996V18.4746C49.7695 18.6781 49.6039 18.8438 49.4004 18.8438H41.5254C41.3219 18.8438 41.1562 18.6781 41.1562 18.4746V14.5531C41.1566 14.5477 41.1572 14.5426 41.1572 14.5371C41.1572 14.5317 41.1566 14.5265 41.1562 14.5211V10.5996C41.1562 10.3961 41.3219 10.2305 41.5254 10.2305Z" fill="#26BE69"/>
<path d="M43.3301 17.6133H47.5957C48.1158 17.6133 48.5391 17.19 48.5391 16.6699V12.4043C48.5391 11.8842 48.1158 11.4609 47.5957 11.4609H43.3301C42.81 11.4609 42.3867 11.8842 42.3867 12.4043V16.6699C42.3867 17.19 42.81 17.6133 43.3301 17.6133ZM43.6172 12.6914H47.3086V16.3828H43.6172V12.6914Z" fill="#26BE69"/>
<path d="M47.5957 48.5391C48.1158 48.5391 48.5391 48.1158 48.5391 47.5957V43.3301C48.5391 42.81 48.1158 42.3867 47.5957 42.3867H43.3301C42.81 42.3867 42.3867 42.81 42.3867 43.3301V47.5957C42.3867 48.1158 42.81 48.5391 43.3301 48.5391H47.5957ZM43.6172 43.6172H47.3086V47.3086H43.6172V43.6172Z" fill="#26BE69"/>
</svg>
