<svg width="60" height="60" viewBox="0 0 60 60" fill="none" xmlns="http://www.w3.org/2000/svg">
<path d="M47.0922 19.3902H43.0159C42.6577 16.842 40.4411 15 37.58 15H16.7264C15.516 15 14.5312 15.9847 14.5312 17.1951V22.6825V22.6829V26.3415C14.5312 26.7456 14.8588 27.0732 15.263 27.0732C15.667 27.0732 15.9947 26.7456 15.9947 26.3415V22.6829C15.9947 21.6743 16.8153 20.8537 17.8239 20.8537H47.0922C47.4956 20.8537 47.8239 21.1819 47.8239 21.5854V25.9756H38.3117C36.4961 25.9756 35.019 27.4527 35.019 29.2683V33.6585C35.019 35.4741 36.4961 36.9512 38.3117 36.9512H47.8239V41.7073C47.8239 42.716 47.0033 43.5366 45.9946 43.5366H17.8239C16.8153 43.5366 15.9947 42.716 15.9947 41.7073C15.9947 41.3032 15.667 40.9756 15.263 40.9756C14.8588 40.9756 14.5312 41.3032 14.5312 41.7073C14.5312 43.5229 16.0083 45 17.8239 45H45.9946C47.8102 45 49.2873 43.5229 49.2873 41.7073V21.5854C49.2873 20.375 48.3026 19.3902 47.0922 19.3902ZM15.9947 19.9467V17.1951C15.9947 16.7917 16.3229 16.4634 16.7264 16.4634H37.58C39.6338 16.4634 41.1907 17.6573 41.533 19.3902H17.8239C17.1475 19.3902 16.5182 19.5955 15.9947 19.9467ZM38.3117 35.4878C37.303 35.4878 36.4824 34.6672 36.4824 33.6585V29.2683C36.4824 28.2596 37.3031 27.439 38.3117 27.439H47.8239V35.4878L38.3117 35.4878Z" fill="#26BE69"/>
<path d="M40.8721 28.5371C39.2583 28.5371 37.9453 29.8501 37.9453 31.4639C37.9453 33.0778 39.2583 34.3908 40.8721 34.3908C42.486 34.3908 43.799 33.0778 43.799 31.4639C43.799 29.8501 42.486 28.5371 40.8721 28.5371ZM40.8721 32.9274C40.0652 32.9274 39.4087 32.2709 39.4087 31.4639C39.4087 30.657 40.0652 30.0005 40.8721 30.0005C41.6791 30.0005 42.3356 30.657 42.3356 31.4639C42.3356 32.2709 41.6791 32.9274 40.8721 32.9274Z" fill="#26BE69"/>
<path d="M21.8506 33.6586C21.8506 33.2545 21.523 32.9269 21.1189 32.9269H11.6067C11.2026 32.9269 10.875 33.2545 10.875 33.6586C10.875 34.0627 11.2026 34.3903 11.6067 34.3903H21.1189C21.523 34.3903 21.8506 34.0627 21.8506 33.6586Z" fill="#26BE69"/>
<path d="M21.8491 29.2678C21.8491 28.8637 21.5215 28.5361 21.1174 28.5361H9.04421C8.64008 28.5361 8.3125 28.8637 8.3125 29.2678C8.3125 29.6719 8.64008 29.9995 9.04421 29.9995H21.1174C21.5215 29.9995 21.8491 29.6719 21.8491 29.2678Z" fill="#26BE69"/>
<path d="M21.8482 38.0481C21.8482 37.644 21.5206 37.3164 21.1165 37.3164H14.1653C13.7612 37.3164 13.4336 37.644 13.4336 38.0481C13.4336 38.4522 13.7612 38.7798 14.1653 38.7798H21.1165C21.5206 38.7798 21.8482 38.4522 21.8482 38.0481Z" fill="#26BE69"/>
</svg>
