<svg width="60" height="60" viewBox="0 0 60 60" fill="none" xmlns="http://www.w3.org/2000/svg">
<g clip-path="url(#clip0_383_2867)">
<path fill-rule="evenodd" clip-rule="evenodd" d="M40.5627 60C40.4221 60 40.2815 59.9297 40.176 59.8594C30.4045 53.2162 26.1163 45.1318 26.6787 34.4112C26.7138 34.0949 26.9599 33.8137 27.2762 33.7786C37.8913 32.232 39.5785 26.7487 41.0196 27.8735C45.5539 31.529 48.1901 32.935 53.8491 33.7786C54.1655 33.8137 54.4467 34.0949 54.4467 34.4112C55.0442 45.1318 50.756 53.2162 40.9493 59.8594C40.8439 59.9297 40.7033 60 40.5627 60ZM28.0495 35.0791C27.698 44.8155 31.6699 52.2671 40.5627 58.4183C49.4555 52.2671 53.4273 44.8155 53.0759 35.0791C47.5926 34.2003 44.7454 32.6186 40.5627 29.3146C36.4502 32.5483 33.5328 34.2003 28.0495 35.0791Z" fill="#26BE69"/>
<path fill-rule="evenodd" clip-rule="evenodd" d="M40.5624 56.7311C40.4218 56.7311 40.2812 56.696 40.1758 56.6257C28.7522 48.8928 29.2443 37.1881 29.2795 36.696C29.3146 36.3796 29.5607 36.0984 29.877 36.0281C35.0088 35.29 40.0703 31.3181 40.1406 31.283C40.3867 31.0721 40.7382 31.0721 41.0194 31.283C41.0545 31.3181 46.116 35.29 51.2478 36.0281C51.5993 36.0984 51.8454 36.3796 51.8454 36.696C51.8805 37.1881 52.3726 48.8577 40.9491 56.6257C40.8436 56.696 40.703 56.7311 40.5624 56.7311ZM30.6854 37.3287C30.7557 39.6837 31.5642 48.8225 40.5624 55.1845C49.5958 48.8225 50.4042 39.6837 50.4394 37.3287C46.0106 36.5202 41.8981 33.7083 40.5624 32.7241C39.2267 33.7083 35.1494 36.5202 30.6854 37.3287Z" fill="#26BE69"/>
<path fill-rule="evenodd" clip-rule="evenodd" d="M27.03 52.9705C16.5906 52.9705 5.4834 50.3694 5.4834 45.5188V7.41686C5.4834 6.50297 6.88937 6.50297 6.88937 7.41686V45.5188C6.88937 48.401 15.1495 51.5645 27.03 51.5645C28.8929 51.5645 30.7207 51.4942 32.5133 51.3184C33.4272 51.2481 33.5326 52.6541 32.6187 52.7244C30.8261 52.865 28.928 52.9705 27.03 52.9705ZM47.8736 33.7086C47.4869 33.7086 47.1706 33.3923 47.1706 33.0056V7.41686C47.1706 6.50297 48.5765 6.50297 48.5765 7.41686V33.0056C48.5765 33.3923 48.2602 33.7086 47.8736 33.7086Z" fill="#26BE69"/>
<path fill-rule="evenodd" clip-rule="evenodd" d="M27.03 14.8682C16.5906 14.8682 5.4834 12.2671 5.4834 7.41652C5.4834 2.60105 16.5906 0 27.03 0C37.4693 0 48.5765 2.60105 48.5765 7.41652C48.5765 12.2671 37.4693 14.8682 27.03 14.8682ZM27.03 1.40598C15.1495 1.40598 6.88937 4.56942 6.88937 7.41652C6.88937 10.2988 15.1495 13.4622 27.03 13.4622C38.9105 13.4622 47.1706 10.2988 47.1706 7.41652C47.1706 4.56942 38.9105 1.40598 27.03 1.40598Z" fill="#26BE69"/>
<path fill-rule="evenodd" clip-rule="evenodd" d="M27.03 27.9086C16.5906 27.9086 5.4834 25.3075 5.4834 20.4569C5.4834 19.543 6.88937 19.543 6.88937 20.4569C6.88937 23.304 15.1495 26.5026 27.03 26.5026C38.9105 26.5026 47.1706 23.304 47.1706 20.4569C47.1706 19.543 48.5765 19.543 48.5765 20.4569C48.5765 25.3075 37.4693 27.9086 27.03 27.9086Z" fill="#26BE69"/>
<path fill-rule="evenodd" clip-rule="evenodd" d="M27.03 39.9301C16.5906 39.9301 5.4834 37.329 5.4834 32.5135C5.4834 31.5645 6.88937 31.5645 6.88937 32.5135C6.88937 35.3606 15.1495 38.5241 27.03 38.5241C27.4518 38.5241 28.1899 38.4889 28.1899 39.2271C28.1899 40.0004 27.4166 39.9301 27.03 39.9301ZM47.8384 33.7086C46.8191 33.7086 46.9597 31.8105 47.8736 31.8105C48.8929 31.8105 48.7523 33.7086 47.8384 33.7086Z" fill="#26BE69"/>
<path fill-rule="evenodd" clip-rule="evenodd" d="M11.8101 21.2657C8.82241 21.2657 8.82241 16.6963 11.8101 16.6963C14.833 16.6963 14.833 21.2657 11.8101 21.2657ZM11.8101 18.1023C10.6502 18.1023 10.6502 19.8597 11.8101 19.8597C12.97 19.8597 12.97 18.1023 11.8101 18.1023Z" fill="#26BE69"/>
<path fill-rule="evenodd" clip-rule="evenodd" d="M27.0297 20.8433C24.2881 20.8433 21.5816 20.6675 19.0508 20.3512C18.1369 20.2106 18.3127 18.8046 19.2617 18.9452C26.7837 19.9294 36.3092 19.4725 42.5306 17.1526C43.4093 16.8362 43.9014 18.1719 43.0227 18.4883C38.9805 19.9645 33.1457 20.8433 27.0297 20.8433Z" fill="#26BE69"/>
<path fill-rule="evenodd" clip-rule="evenodd" d="M11.8101 33.7434C8.82241 33.7434 8.82241 29.174 11.8101 29.174C14.833 29.174 14.833 33.7434 11.8101 33.7434ZM11.8101 30.58C10.6502 30.58 10.6502 32.3374 11.8101 32.3374C13.0052 32.3374 12.97 30.58 11.8101 30.58Z" fill="#26BE69"/>
<path fill-rule="evenodd" clip-rule="evenodd" d="M27.0297 33.3216C24.2881 33.3216 21.5816 33.1459 19.0508 32.8295C18.1369 32.6889 18.3127 31.283 19.2617 31.4236C24.2529 32.0914 30.1932 32.0562 35.1844 31.3533C36.0983 31.2478 36.3092 32.6186 35.3953 32.7592C32.7591 33.1107 29.9471 33.3216 27.0297 33.3216Z" fill="#26BE69"/>
<path fill-rule="evenodd" clip-rule="evenodd" d="M11.8101 46.2218C8.82241 46.2218 8.82241 41.6523 11.8101 41.6523C14.833 41.6523 14.833 46.2218 11.8101 46.2218ZM11.8101 43.0583C10.6502 43.0583 10.6502 44.8158 11.8101 44.8158C12.97 44.8158 12.97 43.0583 11.8101 43.0583Z" fill="#26BE69"/>
<path fill-rule="evenodd" clip-rule="evenodd" d="M27.0297 45.7997C24.2881 45.7997 21.5816 45.6239 19.0508 45.3076C18.1369 45.167 18.3127 43.761 19.2617 43.9016C22.6712 44.3585 25.2723 44.3937 28.7521 44.3585C29.6659 44.3585 29.7011 45.7645 28.7872 45.7645C28.1897 45.7997 27.6273 45.7997 27.0297 45.7997Z" fill="#26BE69"/>
<path fill-rule="evenodd" clip-rule="evenodd" d="M39.2269 47.3458C39.016 47.3458 38.8403 47.2755 38.6997 47.17L35.9932 44.4284C35.3253 43.7957 36.3095 42.7764 36.9774 43.4442L39.2269 45.6586L44.1478 40.7026C44.8157 40.0699 45.7999 41.054 45.1672 41.7219L39.719 47.17C39.5784 47.2755 39.4027 47.3458 39.2269 47.3458Z" fill="#26BE69"/>
</g>
<defs>
<clipPath id="clip0_383_2867">
<rect width="60" height="60" fill="white"/>
</clipPath>
</defs>
</svg>
