<svg width="60" height="60" viewBox="0 0 60 60" fill="none" xmlns="http://www.w3.org/2000/svg">
<path d="M30 18C27.3393 18 4 17.804 4 11C4 4.196 27.3393 4 30 4C32.6607 4 56 4.196 56 11C56 17.804 32.6607 18 30 18ZM7.44067 11C9.02667 12.3253 16.6382 14.5 30 14.5C43.3618 14.5 50.9733 12.3253 52.5593 11C50.9733 9.67467 43.3618 7.5 30 7.5C16.6382 7.5 9.02667 9.67467 7.44067 11Z" fill="#26BE69"/>
<path d="M30 30C27.3393 30 4 29.8208 4 23.6C4 22.7168 4.728 22 5.625 22C6.45917 22 7.146 22.6187 7.23917 23.4165C8.24017 24.5963 15.9318 26.8 30 26.8C44.0682 26.8 51.7598 24.5963 52.7608 23.4165C52.854 22.6187 53.5408 22 54.375 22C55.272 22 56 22.7168 56 23.6C56 29.8208 32.6607 30 30 30ZM52.75 23.5979C52.75 23.6 52.75 23.6 52.75 23.5979V23.5979ZM7.25 23.5979C7.25 23.6 7.25 23.6 7.25 23.5979V23.5979Z" fill="#26BE69"/>
<path d="M30 44C27.3393 44 4 43.7984 4 36.8C4 35.8064 4.728 35 5.625 35C6.45917 35 7.146 35.696 7.23917 36.5936C8.24017 37.9208 15.9318 40.4 30 40.4C44.0682 40.4 51.7598 37.9208 52.7608 36.5936C52.854 35.696 53.5408 35 54.375 35C55.272 35 56 35.8064 56 36.8C56 43.7984 32.6607 44 30 44ZM52.75 36.7976C52.75 36.8 52.75 36.8 52.75 36.7976V36.7976ZM7.25 36.7976C7.25 36.8 7.25 36.8 7.25 36.7976V36.7976Z" fill="#26BE69"/>
<path d="M30 56C27.3393 56 4 55.8185 4 49.5172V10.6207C4 9.72607 4.728 9 5.625 9C6.522 9 7.25 9.72607 7.25 10.6207V49.3422C8.29217 50.5437 15.9817 52.7586 30 52.7586C44.0183 52.7586 51.7078 50.5437 52.75 49.3422V10.6207C52.75 9.72607 53.478 9 54.375 9C55.272 9 56 9.72607 56 10.6207V49.5172C56 55.8185 32.6607 56 30 56Z" fill="#26BE69"/>
<path d="M14 36C15.1046 36 16 35.1046 16 34C16 32.8954 15.1046 32 14 32C12.8954 32 12 32.8954 12 34C12 35.1046 12.8954 36 14 36Z" fill="#26BE69"/>
<path d="M14 24C15.1046 24 16 23.1046 16 22C16 20.8954 15.1046 20 14 20C12.8954 20 12 20.8954 12 22C12 23.1046 12.8954 24 14 24Z" fill="#26BE69"/>
<path d="M14 50C15.1046 50 16 49.1046 16 48C16 46.8954 15.1046 46 14 46C12.8954 46 12 46.8954 12 48C12 49.1046 12.8954 50 14 50Z" fill="#26BE69"/>
</svg>
