<svg width="211" height="57" viewBox="0 0 211 57" fill="none" xmlns="http://www.w3.org/2000/svg">
<path d="M24.6557 0L0 14.2398V42.7195L24.6557 56.9593L49.3114 42.7195V14.2398L24.6557 0ZM46.6861 41.207L25.8543 53.2495V42.8621L37.5543 36.0704V33.0455L24.5416 40.5792L8.98906 30.9053V19.4906L21.0601 12.5276V9.50272L6.39223 17.921V32.275L7.50516 32.9884V33.017L9.0176 33.9587L9.8737 34.5009L23.2289 42.8051V45.7158L9.0176 37.5258V36.6411L6.39223 34.986V39.0382L23.2289 48.7692V53.0783L2.65391 41.207V15.7808L23.3716 3.82392V14.1542L11.7001 20.9174V23.9708L24.6843 16.4371L40.3224 26.1967V37.5258L39.8372 37.8111L28.1372 44.5743V47.5992L42.9763 39.0382V24.7413L41.7492 23.9423L41.5494 23.8281L40.3509 23.0862L26.0255 14.1542V11.1578L40.3509 19.4335V20.4037L42.9763 22.0589V17.921L25.9969 8.13296V3.82392L46.7146 15.7808V41.207H46.6861Z" fill="#26BE69"/>
<path d="M62.2959 42.32V13.6406H71.5703C74.3955 13.6406 76.5928 14.2398 78.1908 15.4384C79.7604 16.6369 80.5594 18.2921 80.5594 20.4038C80.5594 21.9733 80.1028 23.343 79.2182 24.5416C78.3335 25.7116 77.135 26.5392 75.6511 27.0243V27.1099C77.5345 27.3382 79.047 28.0801 80.1884 29.3072C81.3014 30.5343 81.8721 32.1038 81.8721 33.9587C81.8721 36.4985 80.9589 38.5246 79.1326 40.037C77.3062 41.578 74.9091 42.32 71.9698 42.32H62.2959ZM67.1471 17.5216V25.6831H70.3147C71.8842 25.6831 73.1399 25.3121 74.053 24.5416C74.9662 23.7711 75.4228 22.7152 75.4228 21.3455C75.4228 20.0613 74.9947 19.0911 74.1386 18.4633C73.2825 17.8355 71.9984 17.5216 70.2862 17.5216H67.1471ZM67.1471 29.564V38.439H71.1994C72.9401 38.439 74.3099 38.0394 75.2801 37.2119C76.2503 36.3843 76.7355 35.2714 76.7355 33.8731C76.7355 32.4748 76.2218 31.4189 75.223 30.677C74.2242 29.935 72.7689 29.564 70.8569 29.564H67.1471Z" fill="#26BE69"/>
<path d="M94.058 42.32H89.1782V13.6406H94.058V42.32Z" fill="#26BE69"/>
<path d="M125.647 40.2654C124.249 41.0644 122.708 41.6922 121.024 42.1488C119.34 42.5768 117.543 42.8051 115.602 42.8051C111.236 42.8051 107.754 41.578 105.186 39.1239C102.618 36.6697 101.305 33.1026 101.305 28.4226C101.305 23.9138 102.675 20.2326 105.443 17.4075C108.211 14.5823 111.864 13.184 116.458 13.184C118.17 13.184 119.74 13.3552 121.167 13.6691C122.594 13.9831 124.077 14.4967 125.561 15.1816L123.849 19.034C122.622 18.4348 121.424 18.0353 120.282 17.7499C119.141 17.4931 117.856 17.3504 116.458 17.3504C113.462 17.3504 111.065 18.2636 109.21 20.1184C107.355 21.9733 106.442 24.6272 106.442 28.1087C106.442 31.6187 107.298 34.2441 109.01 35.9849C110.722 37.7256 113.034 38.5817 116.002 38.5817C116.943 38.5817 117.828 38.4961 118.627 38.3249C119.426 38.1536 120.139 37.9254 120.796 37.5829V30.7341H114.775V26.6534H125.647V40.2654Z" fill="#26BE69"/>
<path d="M131.497 40.2082L133.666 36.4414C134.979 37.2689 136.177 37.8397 137.319 38.1821C138.431 38.5245 139.687 38.6957 141.057 38.6957C142.683 38.6957 143.996 38.3533 144.938 37.6399C145.88 36.9265 146.336 35.9277 146.336 34.5865C146.336 33.3879 145.937 32.4462 145.166 31.7613C144.396 31.0765 143.054 30.4486 141.171 29.8779C138.232 29.0218 136.063 27.966 134.693 26.6818C133.323 25.3976 132.639 23.6569 132.639 21.4596C132.639 19.091 133.523 17.122 135.321 15.5239C137.09 13.9544 139.516 13.1554 142.598 13.1554C143.939 13.1554 145.28 13.2981 146.564 13.612C147.877 13.9259 149.161 14.3825 150.417 15.0388L148.505 18.8913C147.449 18.3205 146.393 17.8925 145.394 17.6357C144.396 17.3788 143.368 17.2361 142.341 17.2361C140.829 17.2361 139.659 17.5786 138.802 18.2349C137.946 18.8913 137.518 19.833 137.518 21.0315C137.518 22.0874 137.918 22.9435 138.688 23.5428C139.487 24.142 140.829 24.7413 142.769 25.3406C145.765 26.1967 147.934 27.3096 149.247 28.6508C150.56 29.9921 151.216 31.8469 151.216 34.1584C151.216 36.6697 150.331 38.7528 148.533 40.3509C146.736 41.9775 144.196 42.7765 140.857 42.7765C139.202 42.7765 137.575 42.5482 135.977 42.1202C134.379 41.6921 132.895 41.0643 131.497 40.2082Z" fill="#26BE69"/>
<path d="M180.466 30.306C180.466 34.4724 179.525 37.6114 177.613 39.6946C175.701 41.7778 172.847 42.8051 169.023 42.8051C165.342 42.8051 162.574 41.8063 160.748 39.7802C158.921 37.7541 157.979 34.7292 157.979 30.677V13.6406H162.831V30.6484C162.831 33.2738 163.373 35.2428 164.457 36.5555C165.542 37.8682 167.168 38.5246 169.309 38.5246C171.42 38.5246 172.99 37.8968 174.046 36.6126C175.102 35.3285 175.615 33.4165 175.615 30.8767V13.6406H180.466V30.306Z" fill="#26BE69"/>
<path d="M211.001 42.32H205.407L201.041 34.7007C200.271 33.3594 199.557 32.4462 198.93 31.9326C198.302 31.4189 197.531 31.1621 196.675 31.1336H194.135V42.32H189.284V13.6406H198.644C201.641 13.6406 203.981 14.2969 205.664 15.6381C207.376 16.9794 208.204 18.9484 208.204 21.6023C208.204 23.5713 207.662 25.255 206.577 26.6248C205.493 27.9945 204.009 28.9933 202.097 29.6497V29.7353C202.811 30.0492 203.467 30.5058 204.066 31.1336C204.665 31.7614 205.208 32.5319 205.75 33.4165L211.001 42.32ZM194.107 17.5786V27.167H197.817C199.358 27.167 200.613 26.6818 201.583 25.7401C202.554 24.7699 203.067 23.5713 203.067 22.0874C203.067 20.6606 202.639 19.5762 201.755 18.7772C200.899 17.9781 199.614 17.6072 197.902 17.6072H194.107V17.5786Z" fill="#26BE69"/>
</svg>
